<svg xmlns="http://www.w3.org/2000/svg" xmlns:xlink="http://www.w3.org/1999/xlink" width="500" zoomAndPan="magnify" viewBox="0 0 375 374.999991" height="500" preserveAspectRatio="xMidYMid meet" version="1.0"><defs><clipPath id="9d30a2972b"><path d="M 37.5 78 L 337 78 L 337 297 L 37.5 297 Z M 37.5 78 " clip-rule="nonzero"/></clipPath></defs><g clip-path="url(#9d30a2972b)"><path fill="#7768cc" d="M 336.84375 127.59375 C 336.84375 100.25 314.679688 78.082031 287.332031 78.082031 C 234.265625 78.082031 140.578125 78.082031 87.511719 78.082031 C 60.164062 78.082031 37.992188 100.25 37.992188 127.59375 C 37.992188 162.429688 37.992188 212.890625 37.992188 247.71875 C 37.992188 275.070312 60.164062 297.238281 87.511719 297.238281 C 140.578125 297.238281 234.265625 297.238281 287.332031 297.238281 C 314.679688 297.238281 336.84375 275.070312 336.84375 247.71875 Z M 227.867188 193.453125 L 194.214844 224.832031 C 190.386719 228.398438 184.453125 228.398438 180.628906 224.832031 L 149.292969 195.621094 L 75.613281 274.828125 C 79.253906 276.425781 83.277344 277.3125 87.511719 277.3125 C 87.511719 277.3125 287.332031 277.3125 287.332031 277.3125 C 291.644531 277.3125 295.738281 276.390625 299.433594 274.738281 Z M 61.394531 113.667969 L 134.71875 182.03125 L 61.128906 261.140625 C 59.074219 257.117188 57.917969 252.554688 57.917969 247.726562 C 57.917969 247.71875 57.917969 127.59375 57.917969 127.59375 C 57.917969 122.558594 59.175781 117.816406 61.394531 113.667969 Z M 313.449219 113.667969 C 315.667969 117.816406 316.925781 122.558594 316.925781 127.59375 L 316.925781 247.71875 C 316.925781 252.46875 315.804688 256.949219 313.820312 260.925781 L 242.445312 179.863281 Z M 298.636719 100.238281 L 187.417969 203.925781 L 76.207031 100.238281 C 79.691406 98.800781 83.507812 98 87.511719 98 C 87.511719 98 287.332031 98 287.332031 98 C 291.332031 98 295.15625 98.800781 298.636719 100.238281 Z M 298.636719 100.238281 " fill-opacity="1" fill-rule="evenodd"/></g></svg>