<svg width="60" height="60" viewBox="0 0 60 60" fill="none" xmlns="http://www.w3.org/2000/svg">
<path d="M30 56.4C44.5803 56.4 56.4 44.5803 56.4 30C56.4 15.4197 44.5803 3.6 30 3.6C15.4197 3.6 3.59998 15.4197 3.59998 30C3.59998 44.5803 15.4197 56.4 30 56.4Z" stroke="#9482FF" stroke-width="5" stroke-miterlimit="10"/>
<path d="M37.1401 39.1854C37.8322 41.035 38.2277 43.222 38.2277 45.5719C38.2277 52.1794 34.9102 54 31.0214 54C27.9072 54 25.3751 52.8367 24.4853 48.992C24.0734 49.1025 23.6449 49.1665 23.211 49.1665C21.9917 49.1665 20.7449 48.6605 19.8606 47.2354L18.4435 44.9554C18.4435 44.9554 17.5207 43.6292 15.6478 43.6292C14.736 43.6292 14 42.8498 14 41.8843C14 40.9187 14.736 40.1393 15.6478 40.1393C18.5863 40.1393 20.5142 41.9541 21.1898 43.0243L22.6123 45.316C22.9803 45.9034 23.7054 45.6592 24.1393 45.4381C24.1557 43.1406 24.5512 40.9943 25.2268 39.1854C20.5801 38.4409 17.3724 36.3004 17.3724 30.4839C17.3724 27.3139 18.3226 24.3824 19.9429 21.9919C19.877 20.5843 19.6354 18.8277 19.6354 17.3154C19.6354 15.4716 19.9924 14 21.4479 14L28.1763 16.2045C29.143 15.9776 30.1536 15.8555 31.1862 15.8555C32.1254 15.8555 33.0427 15.9543 33.927 16.1463L39.5349 14C42.1713 14 42.3855 18.8219 42.3965 21.9453C44.0333 24.3475 45 27.2965 45 30.4839C45 36.3062 41.7923 38.4409 37.1401 39.1854Z" fill="#9482FF"/>
</svg>
