<svg width="70" height="70" viewBox="0 0 70 70" fill="none" xmlns="http://www.w3.org/2000/svg">
<path d="M52.9296 8H14.0704C9.61326 8 6 11.6133 6 16.0704V54.9296C6 59.3867 9.61326 63 14.0704 63H52.9296C57.3867 63 61 59.3867 61 54.9296V16.0704C61 11.6133 57.3867 8 52.9296 8Z" stroke="#9482FF" stroke-width="6" stroke-miterlimit="10"/>
<path d="M41.1401 40.815C41.8322 42.7109 42.2277 44.9526 42.2277 47.3612C42.2277 54.1339 38.9102 56 35.0214 56C31.9072 56 29.3751 54.8076 28.4853 50.8668C28.0734 50.9801 27.6449 51.0457 27.211 51.0457C25.9917 51.0457 24.7449 50.527 23.8606 49.0663L22.4435 46.7292C22.4435 46.7292 21.5207 45.3699 19.6478 45.3699C18.736 45.3699 18 44.571 18 43.5814C18 42.5917 18.736 41.7928 19.6478 41.7928C22.5863 41.7928 24.5142 43.6529 25.1898 44.7499L26.6123 47.0989C26.9803 47.701 27.7054 47.4506 28.1393 47.2241C28.1557 44.8691 28.5512 42.6692 29.2268 40.815C24.5801 40.0519 21.3724 37.8579 21.3724 31.896C21.3724 28.6468 22.3226 25.642 23.9429 23.1917C23.877 21.7489 23.6354 19.9484 23.6354 18.3983C23.6354 16.5084 23.9924 15 25.4479 15L32.1763 17.2596C33.143 17.027 34.1536 16.9018 35.1862 16.9018C36.1254 16.9018 37.0427 17.0032 37.927 17.1999L43.5349 15C46.1713 15 46.3855 19.9424 46.3965 23.144C48.0333 25.6062 49 28.6289 49 31.896C49 37.8639 45.7923 40.0519 41.1401 40.815Z" fill="#9482FF"/>
</svg>
