<svg width="40" height="40" viewBox="0 0 40 40" fill="none" xmlns="http://www.w3.org/2000/svg">
<g clip-path="url(#clip0_105_386)">
<mask id="mask0_105_386" style="mask-type:luminance" maskUnits="userSpaceOnUse" x="0" y="0" width="40" height="40">
<path d="M0 0H40V40H0V0Z" fill="white"/>
</mask>
<g mask="url(#mask0_105_386)">
<path fill-rule="evenodd" clip-rule="evenodd" d="M20.0094 0C19.6818 0 19.3547 0.0083333 19.0276 0.0244792C18.701 0.040625 18.3745 0.0645834 18.049 0.096875C17.7229 0.129167 17.3984 0.169271 17.0745 0.217708C16.7505 0.265625 16.4281 0.321875 16.1073 0.385417C15.7859 0.449479 15.4667 0.521354 15.1495 0.601042C14.8318 0.680729 14.5167 0.768229 14.2031 0.863021C13.8901 0.958333 13.5792 1.06094 13.2714 1.17135C12.963 1.28177 12.6578 1.4 12.3552 1.525C12.0531 1.65052 11.7536 1.78333 11.4578 1.92344C11.162 2.06354 10.8698 2.21042 10.5812 2.3651C10.2927 2.51927 10.0078 2.68073 9.72708 2.84896C9.44635 3.01771 9.16979 3.19271 8.89792 3.37448C8.62604 3.55677 8.35833 3.74531 8.09531 3.9401C7.83281 4.13542 7.57448 4.33698 7.32187 4.54427C7.06875 4.75208 6.82083 4.96615 6.57864 5.18594C6.33594 5.40573 6.09896 5.63177 5.86771 5.86302C5.63646 6.09479 5.41094 6.33177 5.19114 6.57448C4.97135 6.81719 4.75781 7.0651 4.55 7.31823C4.34219 7.57083 4.14114 7.82917 3.94635 8.09219C3.75156 8.35521 3.56302 8.62292 3.38125 8.89479C3.19948 9.16719 3.02448 9.44375 2.85625 9.72448C2.68802 10.0052 2.52708 10.2901 2.37239 10.5792C2.21823 10.8677 2.07135 11.1599 1.93177 11.4557C1.79167 11.7521 1.65937 12.051 1.53385 12.3536C1.40885 12.6563 1.29114 12.9615 1.18073 13.2698C1.07083 13.5781 0.968228 13.8885 0.873436 14.2021C0.778124 14.5151 0.691144 14.8307 0.611978 15.1484C0.53229 15.4656 0.460936 15.7849 0.396874 16.1063C0.333332 16.4271 0.277082 16.7495 0.229165 17.0734C0.181249 17.3974 0.141665 17.7219 0.109374 18.0479C0.0776028 18.3734 0.0536445 18.7 0.0374986 19.0271C0.0218735 19.3542 0.0135402 19.6813 0.0140611 20.0083C0.0140611 20.3359 0.0218736 20.663 0.0380194 20.9901C0.0541653 21.3167 0.0786445 21.6432 0.110936 21.9688C0.142707 22.2948 0.182811 22.6193 0.231249 22.9432C0.279165 23.2672 0.335415 23.5896 0.399478 23.9104C0.46354 24.2318 0.534894 24.551 0.614582 24.8682C0.694269 25.1859 0.781769 25.501 0.877082 25.8146C0.971874 26.1276 1.07448 26.4385 1.18489 26.7464C1.29531 27.0547 1.41354 27.3599 1.53854 27.6625C1.66406 27.9646 1.79687 28.2641 1.93698 28.5599C2.07708 28.8557 2.22396 29.1479 2.37864 29.4365C2.53281 29.725 2.69427 30.0099 2.8625 30.2906C3.03073 30.5714 3.20625 30.8479 3.38802 31.1198C3.56979 31.3922 3.75833 31.6594 3.95364 31.9224C4.14844 32.1854 4.35 32.4432 4.55781 32.6964C4.76562 32.949 4.97917 33.1969 5.19948 33.4391C5.41927 33.6818 5.64479 33.9188 5.87656 34.15C6.10781 34.3818 6.34479 34.6073 6.5875 34.8271C6.83021 35.0469 7.07812 35.2604 7.33125 35.4677C7.58437 35.6755 7.84219 35.8766 8.10521 36.0719C8.36823 36.2667 8.63594 36.4552 8.90833 36.637C9.18021 36.8188 9.45677 36.9938 9.7375 37.162C10.0187 37.3302 10.3031 37.4911 10.5922 37.6453C10.8807 37.7995 11.1729 37.9469 11.4693 38.0865C11.7651 38.2266 12.0641 38.3589 12.3667 38.4844C12.6693 38.6094 12.9745 38.7271 13.2828 38.837C13.5911 38.9474 13.9016 39.05 14.2151 39.1448C14.5281 39.2401 14.8437 39.3271 15.1615 39.4063C15.4786 39.4859 15.7979 39.5578 16.1193 39.6214C16.4401 39.6849 16.7625 39.7411 17.0865 39.7891C17.4104 39.837 17.7354 39.8771 18.0609 39.9089C18.3865 39.9406 18.713 39.9646 19.0401 39.9807C19.3672 39.9969 19.6943 40.0047 20.0214 40.0047C20.349 40.0047 20.676 39.9964 21.0031 39.9802C21.3297 39.9641 21.6562 39.9401 21.9818 39.9078C22.3078 39.8755 22.6323 39.8354 22.9562 39.7875C23.2802 39.7391 23.6026 39.6833 23.9234 39.6193C24.2448 39.5552 24.5641 39.4833 24.8812 39.4036C25.199 39.3245 25.5141 39.237 25.8276 39.1417C26.1406 39.0469 26.4516 38.9438 26.7594 38.8333C27.0677 38.7234 27.3729 38.6052 27.6755 38.4802C27.9776 38.3547 28.2771 38.2219 28.5729 38.0818C28.8687 37.9417 29.1609 37.7948 29.4495 37.6401C29.7385 37.4859 30.0229 37.3245 30.3036 37.1563C30.5844 36.988 30.8609 36.8125 31.1328 36.6307C31.4052 36.449 31.6724 36.2604 31.9354 36.0651C32.1984 35.8703 32.4562 35.6688 32.7094 35.4609C32.9625 35.2531 33.2099 35.0396 33.4526 34.8198C33.6948 34.6 33.9318 34.374 34.1635 34.1427C34.3948 33.9109 34.6203 33.674 34.8401 33.4313C35.0599 33.1885 35.2734 32.9411 35.4813 32.688C35.6891 32.4349 35.8901 32.1766 36.0849 31.9135C36.2802 31.6505 36.4682 31.3833 36.65 31.1109C36.8318 30.8385 37.0068 30.562 37.175 30.2813C37.3432 30.0005 37.5047 29.7156 37.6589 29.4271C37.813 29.1385 37.9599 28.8458 38.1 28.55C38.2401 28.2542 38.3724 27.9547 38.4979 27.6526C38.6229 27.35 38.7406 27.0448 38.8505 26.7365C38.9609 26.4281 39.0635 26.1172 39.1583 25.8042C39.2536 25.4906 39.3406 25.1755 39.4203 24.8578C39.4995 24.5401 39.5714 24.2208 39.6349 23.9C39.699 23.5786 39.7547 23.2563 39.8026 22.9328C39.8505 22.6089 39.8906 22.2839 39.9224 21.9583C39.9547 21.6323 39.9786 21.3063 39.9948 20.9792C40.0104 20.6521 40.0182 20.325 40.0182 19.9979C40.0177 19.6703 40.0089 19.3432 39.9922 19.0167C39.9755 18.6901 39.951 18.3635 39.9182 18.038C39.8854 17.7125 39.8448 17.388 39.7964 17.0646C39.7479 16.7406 39.6911 16.4188 39.6271 16.0979C39.5625 15.7771 39.4906 15.4578 39.4104 15.1406C39.3307 14.8234 39.2427 14.5083 39.1474 14.1953C39.0521 13.8823 38.949 13.5719 38.8385 13.2641C38.7276 12.9557 38.6094 12.651 38.4839 12.3484C38.3583 12.0464 38.2255 11.7474 38.0854 11.4521C37.9453 11.1563 37.7979 10.8641 37.6432 10.576C37.4885 10.2875 37.3271 10.0031 37.1589 9.7224C36.9901 9.44167 36.8151 9.16563 36.6333 8.89375C36.451 8.62188 36.2625 8.35469 36.0677 8.09167C35.8724 7.82917 35.6708 7.57135 35.4635 7.31875C35.2557 7.06563 35.0417 6.81823 34.8219 6.57552C34.6021 6.33333 34.3766 6.09635 34.1448 5.8651C33.9135 5.63385 33.6766 5.40833 33.4344 5.18854C33.1917 4.96927 32.9438 4.75521 32.6911 4.54792C32.438 4.3401 32.1802 4.13906 31.9172 3.94427C31.6547 3.74896 31.387 3.56094 31.1151 3.37917C30.8432 3.19688 30.5667 3.02188 30.2859 2.85365C30.0057 2.68542 29.7208 2.52396 29.4323 2.36979C29.1437 2.21563 28.8516 2.06823 28.5562 1.92813C28.2604 1.78802 27.9615 1.65521 27.6589 1.53021C27.3568 1.40469 27.0516 1.28646 26.7437 1.17604C26.4359 1.06563 26.125 0.963021 25.812 0.867708C25.499 0.772396 25.1839 0.684896 24.8667 0.605208C24.5495 0.525521 24.2302 0.453125 23.9094 0.389063C23.5885 0.325 23.2661 0.26875 22.9427 0.220313C22.6193 0.171875 22.2943 0.13125 21.9688 0.0989583C21.6432 0.0666666 21.3172 0.0421875 20.9901 0.0255208C20.6635 0.00885417 20.3365 0.0005208 20.0094 0ZM25.5328 36.8745C24.6651 37.0516 24.3453 36.5177 24.3453 36.0573C24.3453 35.4708 24.3703 33.6063 24.3703 31.2844C24.3703 29.6734 23.8229 28.6193 23.1969 28.0828C27.0516 27.6479 31.1094 26.1818 31.1094 19.5188C31.1161 19.0917 31.0818 18.6682 31.0073 18.2474C30.9328 17.8271 30.8193 17.4172 30.6661 17.0182C30.513 16.6198 30.324 16.2391 30.0979 15.8766C29.8719 15.5141 29.6141 15.176 29.3234 14.863C29.5005 14.4281 30.113 12.6536 29.1552 10.2599C29.1552 10.2599 27.701 9.78594 24.3844 12.0323C23.6781 11.8422 22.962 11.699 22.237 11.6031C21.5115 11.5073 20.7833 11.4594 20.0516 11.4594C19.3203 11.4594 18.5917 11.5073 17.8667 11.6031C17.1411 11.699 16.4255 11.8422 15.7193 12.0323C12.4026 9.81354 10.9458 10.2599 10.9458 10.2599C10.0021 12.6443 10.6031 14.4188 10.7802 14.863C10.4917 15.1771 10.2354 15.5156 10.0115 15.8786C9.78698 16.2417 9.59896 16.6224 9.4474 17.0208C9.29583 17.4198 9.18281 17.8292 9.10885 18.249C9.0349 18.6693 9.00156 19.0927 9.00781 19.5188C9.00781 26.1542 13.0401 27.6479 16.8927 28.0828C16.3958 28.5156 15.9354 29.2682 15.7839 30.4052C14.787 30.8516 12.299 31.5901 10.7432 28.976C10.412 28.451 9.44062 27.176 8.07604 27.1901C6.62135 27.2151 7.48906 28.0182 8.08958 28.3406C8.82865 28.762 9.67083 30.2922 9.87552 30.7896C10.2187 31.7724 11.3417 33.6339 15.6937 32.8307C15.6937 34.2854 15.7193 35.6526 15.7193 36.0531C15.7193 36.513 15.4016 37.0219 14.5318 36.8698C14.2104 36.7625 13.8922 36.6453 13.5776 36.5188C13.263 36.3927 12.9526 36.2573 12.6458 36.1125C12.3391 35.9677 12.037 35.8146 11.7396 35.6521C11.4417 35.4896 11.1495 35.3188 10.8615 35.1391C10.574 34.9599 10.2922 34.7719 10.0156 34.5755C9.73906 34.3797 9.46823 34.1755 9.20365 33.9635C8.93906 33.7516 8.68125 33.5318 8.42969 33.3047C8.17812 33.0776 7.93333 32.8432 7.69531 32.6021C7.45729 32.3604 7.22656 32.112 7.00364 31.8568C6.78021 31.6021 6.56458 31.3406 6.35625 31.0729C6.14844 30.8052 5.94844 30.5313 5.75677 30.2521C5.56458 29.9724 5.38125 29.6875 5.20625 29.3974C5.03125 29.1073 4.86458 28.812 4.70677 28.512C4.54896 28.212 4.4 27.9073 4.25989 27.5984C4.12031 27.2901 3.98906 26.9771 3.86771 26.6609C3.74635 26.3443 3.63385 26.0245 3.53125 25.7016C3.42812 25.3786 3.33489 25.0526 3.25156 24.724C3.16771 24.3958 3.09375 24.0651 3.02969 23.7323C2.9651 23.399 2.91094 23.0646 2.86614 22.7286C2.82187 22.3927 2.78698 22.0557 2.76198 21.7172C2.7375 21.3792 2.72239 21.0406 2.71771 20.7016C2.7125 20.363 2.71771 20.024 2.73281 19.6854C2.74739 19.3469 2.77239 19.0089 2.80729 18.6714C2.84219 18.3344 2.88698 17.9984 2.94167 17.6635C2.99583 17.3292 3.06042 16.9964 3.13437 16.6656C3.20833 16.3349 3.29219 16.0063 3.38542 15.6807C3.47917 15.3547 3.58177 15.0318 3.69427 14.712C3.80677 14.3922 3.92812 14.076 4.05885 13.763C4.1901 13.4505 4.33021 13.1417 4.47917 12.8375C4.62812 12.5328 4.78594 12.2328 4.9526 11.9375C5.11927 11.6427 5.29427 11.3526 5.47812 11.0677C5.66198 10.7828 5.85364 10.5031 6.05364 10.2297C6.25364 9.95573 6.46198 9.68854 6.6776 9.42708C6.89323 9.16563 7.11667 8.91042 7.34739 8.6625C7.57812 8.41406 7.81614 8.1724 8.06094 7.93802C8.30625 7.70365 8.55781 7.47708 8.81614 7.25729C9.07448 7.0375 9.33906 6.82604 9.60937 6.62188C9.88021 6.41771 10.1568 6.22188 10.4391 6.03385C10.7214 5.84635 11.0089 5.66667 11.3016 5.49583C11.5943 5.325 11.8917 5.16302 12.1943 5.00938C12.4964 4.85573 12.8031 4.71146 13.1135 4.57604C13.4245 4.44063 13.7391 4.31458 14.0573 4.1974C14.3755 4.08021 14.6969 3.97292 15.0214 3.875C15.3458 3.77656 15.6729 3.68802 16.0026 3.60938C16.3323 3.53021 16.6641 3.46146 16.9979 3.40208C17.3313 3.34271 17.6667 3.29271 18.0031 3.25313C18.3401 3.21354 18.6776 3.18385 19.0161 3.16354C19.3547 3.14375 19.6932 3.13385 20.0323 3.13385C20.3714 3.13385 20.7099 3.14375 21.0484 3.16354C21.387 3.18385 21.7245 3.21354 22.0609 3.25313C22.3979 3.29271 22.7328 3.34271 23.0667 3.40208C23.4005 3.46146 23.7323 3.53021 24.062 3.60938C24.3917 3.68802 24.7187 3.77656 25.0432 3.875C25.3677 3.97292 25.6891 4.08021 26.0073 4.1974C26.3255 4.31458 26.6401 4.44063 26.9505 4.57604C27.2615 4.71146 27.5682 4.85573 27.8703 5.00938C28.1724 5.16302 28.4703 5.325 28.763 5.49583C29.0557 5.66667 29.3432 5.84635 29.6255 6.03385C29.9078 6.22188 30.1844 6.41771 30.4547 6.62188C30.7255 6.82604 30.9901 7.0375 31.2484 7.25729C31.5068 7.47708 31.7583 7.70365 32.0031 7.93802C32.2484 8.1724 32.4859 8.41406 32.7167 8.6625C32.9474 8.91042 33.1708 9.16563 33.387 9.42708C33.6026 9.68854 33.8104 9.95573 34.0104 10.2297C34.2109 10.5031 34.4026 10.7828 34.5865 11.0677C34.7698 11.3526 34.9453 11.6427 35.112 11.9375C35.2786 12.2328 35.4365 12.5328 35.5854 12.8375C35.7344 13.1417 35.8745 13.4505 36.0052 13.763C36.1365 14.076 36.2578 14.3922 36.3703 14.712C36.4823 15.0318 36.5854 15.3547 36.6786 15.6807C36.7724 16.0063 36.8557 16.3349 36.9302 16.6656C37.0042 16.9964 37.0682 17.3292 37.1229 17.6635C37.1776 17.9984 37.2224 18.3344 37.2573 18.6714C37.2917 19.0089 37.3167 19.3469 37.3318 19.6854C37.3469 20.024 37.3516 20.363 37.3469 20.7016C37.3417 21.0406 37.3271 21.3792 37.3021 21.7172C37.2776 22.0557 37.2427 22.3927 37.1979 22.7286C37.1536 23.0646 37.099 23.399 37.0349 23.7323C36.9708 24.0651 36.8969 24.3958 36.813 24.724C36.7292 25.0526 36.6359 25.3786 36.5333 25.7016C36.4302 26.0245 36.3182 26.3443 36.1969 26.6609C36.075 26.9771 35.9443 27.2901 35.8042 27.5984C35.6646 27.9073 35.5156 28.212 35.3578 28.512C35.2 28.812 35.0333 29.1073 34.8583 29.3974C34.6833 29.6875 34.4995 29.9724 34.3078 30.2521C34.1156 30.5313 33.9156 30.8052 33.7078 31.0729C33.5 31.3406 33.2844 31.6021 33.0609 31.8568C32.8375 32.112 32.6073 32.3604 32.3693 32.6021C32.1312 32.8432 31.8865 33.0776 31.6349 33.3047C31.3833 33.5318 31.125 33.7516 30.8604 33.9635C30.5958 34.1755 30.3255 34.3797 30.049 34.5755C29.7724 34.7719 29.4901 34.9599 29.2026 35.1391C28.9151 35.3188 28.6224 35.4896 28.325 35.6521C28.0276 35.8146 27.7255 35.9677 27.4187 36.1125C27.112 36.2573 26.8016 36.3927 26.487 36.5188C26.1724 36.6453 25.8542 36.7625 25.5328 36.8698V36.8745Z" fill="#9482FF"/>
</g>
</g>
<defs>
<clipPath id="clip0_105_386">
<rect width="40" height="40" fill="white"/>
</clipPath>
</defs>
</svg>
