<svg width="70" height="70" viewBox="0 0 70 70" fill="none" xmlns="http://www.w3.org/2000/svg">
<path d="M53.9296 7H15.0704C10.6133 7 7 10.6133 7 15.0704V53.9296C7 58.3867 10.6133 62 15.0704 62H53.9296C58.3867 62 62 58.3867 62 53.9296V15.0704C62 10.6133 58.3867 7 53.9296 7Z" stroke="#9482FF" stroke-width="6" stroke-miterlimit="10"/>
<path d="M33.5659 49.0176C41.7169 49.0176 48.3247 42.4099 48.3247 34.2588C48.3247 26.1077 41.7169 19.5 33.5659 19.5C25.4148 19.5 18.8071 26.1077 18.8071 34.2588C18.8071 42.4099 25.4148 49.0176 33.5659 49.0176Z" stroke="#9482FF" stroke-width="6" stroke-miterlimit="10"/>
<path d="M51.763 19.8819C53.3933 19.8819 54.7148 18.5604 54.7148 16.9302C54.7148 15.3 53.3933 13.9784 51.763 13.9784C50.1328 13.9784 48.8113 15.3 48.8113 16.9302C48.8113 18.5604 50.1328 19.8819 51.763 19.8819Z" fill="#9482FF"/>
</svg>
