<svg width="50" height="50" viewBox="0 0 50 50" fill="none" xmlns="http://www.w3.org/2000/svg">
<g clip-path="url(#clip0_106_415)">
<mask id="mask0_106_415" style="mask-type:luminance" maskUnits="userSpaceOnUse" x="0" y="0" width="50" height="50">
<path d="M0 0H50V50H0V0Z" fill="white"/>
</mask>
<g mask="url(#mask0_106_415)">
<path d="M14.7018 0C6.63151 0 0 6.62305 0 14.7018V35.2982C0 43.3685 6.62305 50 14.7018 50H35.2982C43.3685 50 50 43.377 50 35.2982V14.7018C50 6.63151 43.377 0 35.2982 0H14.7018ZM14.7018 4.54557H35.2982C40.918 4.54557 45.4544 9.08203 45.4544 14.7018V35.2982C45.4544 40.918 40.918 45.4544 35.2982 45.4544H14.7018C9.08203 45.4544 4.54557 40.918 4.54557 35.2982V14.7018C4.54557 9.08203 9.08203 4.54557 14.7018 4.54557ZM38.4232 9.51693C37.278 9.51693 36.3639 10.4316 36.3639 11.5768C36.3639 12.722 37.278 13.6361 38.4232 13.6361C39.5684 13.6361 40.4831 12.722 40.4831 11.5768C40.4831 10.4316 39.5684 9.51693 38.4232 9.51693ZM25 11.3639C17.498 11.3639 11.3639 17.498 11.3639 25C11.3639 32.502 17.498 38.6361 25 38.6361C32.502 38.6361 38.6361 32.502 38.6361 25C38.6361 17.498 32.502 11.3639 25 11.3639ZM25 15.9089C30.0514 15.9089 34.0911 19.9486 34.0911 25C34.0911 30.0514 30.0514 34.0911 25 34.0911C19.9486 34.0911 15.9089 30.0514 15.9089 25C15.9089 19.9486 19.9486 15.9089 25 15.9089Z" fill="#9482FF"/>
</g>
</g>
<defs>
<clipPath id="clip0_106_415">
<rect width="50" height="50" fill="white"/>
</clipPath>
</defs>
</svg>
