<svg width="60" height="60" viewBox="0 0 60 60" fill="none" xmlns="http://www.w3.org/2000/svg">
<g clip-path="url(#clip0_114_233)">
<path d="M50.0965 3.6H10.6023C6.07233 3.6 2.40002 7.06873 2.40002 11.3476V48.6524C2.40002 52.9313 6.07233 56.4 10.6023 56.4H50.0965C54.6266 56.4 58.2989 52.9313 58.2989 48.6524V11.3476C58.2989 7.06873 54.6266 3.6 50.0965 3.6Z" stroke="#9482FF" stroke-width="6" stroke-miterlimit="10"/>
<path d="M29.4 43.9369C37.6843 43.9369 44.4 37.5935 44.4 29.7685C44.4 21.9434 37.6843 15.6 29.4 15.6C21.1158 15.6 14.4 21.9434 14.4 29.7685C14.4 37.5935 21.1158 43.9369 29.4 43.9369Z" stroke="#9482FF" stroke-width="6" stroke-miterlimit="10"/>
<path d="M47.8947 15.9667C49.5515 15.9667 50.8947 14.698 50.8947 13.133C50.8947 11.568 49.5515 10.2993 47.8947 10.2993C46.2378 10.2993 44.8947 11.568 44.8947 13.133C44.8947 14.698 46.2378 15.9667 47.8947 15.9667Z" fill="#9482FF"/>
</g>
<defs>
<clipPath id="clip0_114_233">
<rect width="60" height="60" fill="white"/>
</clipPath>
</defs>
</svg>
