<svg width="50" height="50" viewBox="0 0 50 50" fill="none" xmlns="http://www.w3.org/2000/svg">
<g clip-path="url(#clip0_106_421)">
<mask id="mask0_106_421" style="mask-type:luminance" maskUnits="userSpaceOnUse" x="0" y="0" width="50" height="50">
<path d="M0 0H50V50H0V0Z" fill="white"/>
<path d="M0 0H50V50H0V0Z" stroke="white"/>
</mask>
<g mask="url(#mask0_106_421)">
<path d="M41.6667 50H8.33333C8.06055 50 7.78841 49.9863 7.51693 49.959C7.24544 49.9323 6.97591 49.8919 6.70833 49.8385C6.44076 49.7852 6.17643 49.7188 5.91536 49.6393C5.6543 49.5599 5.39779 49.4681 5.14583 49.3633C4.89388 49.2591 4.64714 49.1426 4.4069 49.0137C4.16602 48.8848 3.93229 48.7448 3.70573 48.5931C3.47852 48.4414 3.25977 48.2793 3.04883 48.1061C2.83789 47.9329 2.63607 47.75 2.44336 47.5566C2.25 47.3639 2.06706 47.1621 1.89388 46.9512C1.7207 46.7402 1.55859 46.5215 1.4069 46.2943C1.25521 46.0677 1.11523 45.834 0.986328 45.5931C0.857422 45.3529 0.740885 45.1061 0.636719 44.8542C0.531901 44.6022 0.440104 44.3457 0.360677 44.0846C0.28125 43.8236 0.214844 43.5592 0.161458 43.2917C0.108073 43.0241 0.0677083 42.7546 0.0410156 42.4831C0.0136718 42.2116 0 41.9395 0 41.6667V8.33333C0 8.06055 0.0136718 7.78841 0.0410156 7.51693C0.0677083 7.24544 0.108073 6.97591 0.161458 6.70833C0.214844 6.44076 0.28125 6.17643 0.360677 5.91536C0.440104 5.6543 0.531901 5.39779 0.636719 5.14583C0.740885 4.89388 0.857422 4.64714 0.986328 4.4069C1.11523 4.16602 1.25521 3.93229 1.4069 3.70573C1.55859 3.47852 1.7207 3.25977 1.89388 3.04883C2.06706 2.83789 2.25 2.63607 2.44336 2.44336C2.63607 2.25 2.83789 2.06706 3.04883 1.89388C3.25977 1.7207 3.47852 1.55859 3.70573 1.4069C3.93229 1.25521 4.16602 1.11523 4.4069 0.986328C4.64714 0.857422 4.89388 0.740885 5.14583 0.636719C5.39779 0.531901 5.6543 0.440104 5.91536 0.360677C6.17643 0.28125 6.44076 0.214844 6.70833 0.161458C6.97591 0.108073 7.24544 0.0677083 7.51693 0.0410156C7.78841 0.0136718 8.06055 0 8.33333 0H41.6667C41.9395 0 42.2116 0.0136718 42.4831 0.0410156C42.7546 0.0677083 43.0241 0.108073 43.2917 0.161458C43.5592 0.214844 43.8236 0.28125 44.0846 0.360677C44.3457 0.440104 44.6022 0.531901 44.8542 0.636719C45.1061 0.740885 45.3529 0.857422 45.5931 0.986328C45.834 1.11523 46.0677 1.25521 46.2943 1.4069C46.5215 1.55859 46.7402 1.7207 46.9512 1.89388C47.1621 2.06706 47.3639 2.25 47.5566 2.44336C47.75 2.63607 47.9329 2.83789 48.1061 3.04883C48.2793 3.25977 48.4414 3.47852 48.5931 3.70573C48.7448 3.93229 48.8848 4.16602 49.0137 4.4069C49.1426 4.64714 49.2591 4.89388 49.3633 5.14583C49.4681 5.39779 49.5599 5.6543 49.6393 5.91536C49.7188 6.17643 49.7852 6.44076 49.8385 6.70833C49.8919 6.97591 49.9323 7.24544 49.959 7.51693C49.9863 7.78841 50 8.06055 50 8.33333V41.6667C50 41.9395 49.9863 42.2116 49.959 42.4831C49.9323 42.7546 49.8919 43.0241 49.8385 43.2917C49.7852 43.5592 49.7188 43.8236 49.6393 44.0846C49.5599 44.3457 49.4681 44.6022 49.3633 44.8542C49.2591 45.1061 49.1426 45.3529 49.0137 45.5931C48.8848 45.834 48.7448 46.0677 48.5931 46.2943C48.4414 46.5215 48.2793 46.7402 48.1061 46.9512C47.9329 47.1621 47.75 47.3639 47.5566 47.5566C47.3639 47.75 47.1621 47.9329 46.9512 48.1061C46.7402 48.2793 46.5215 48.4414 46.2943 48.5931C46.0677 48.7448 45.834 48.8848 45.5931 49.0137C45.3529 49.1426 45.1061 49.2591 44.8542 49.3633C44.6022 49.4681 44.3457 49.5599 44.0846 49.6393C43.8236 49.7188 43.5592 49.7852 43.2917 49.8385C43.0241 49.8919 42.7546 49.9323 42.4831 49.959C42.2116 49.9863 41.9395 50 41.6667 50ZM8.33333 5.55534C8.24219 5.55534 8.15169 5.5599 8.0612 5.56901C7.9707 5.57813 7.88086 5.59115 7.79167 5.60872C7.70247 5.62695 7.61393 5.64844 7.52669 5.67513C7.4401 5.70182 7.35417 5.73242 7.27018 5.76693C7.1862 5.80208 7.10417 5.8405 7.02409 5.88346C6.94336 5.92643 6.86589 5.97331 6.79036 6.02344C6.71419 6.07422 6.64128 6.12826 6.57096 6.1862C6.50065 6.24349 6.43359 6.30469 6.36914 6.36914C6.30469 6.43359 6.24349 6.50065 6.1862 6.57096C6.12826 6.64128 6.07422 6.71419 6.02344 6.79036C5.97331 6.86589 5.92643 6.94336 5.88346 7.02409C5.8405 7.10417 5.80208 7.1862 5.76693 7.27018C5.73242 7.35417 5.70182 7.4401 5.67513 7.52669C5.64844 7.61393 5.62695 7.70247 5.60872 7.79167C5.59115 7.88086 5.57813 7.9707 5.56901 8.0612C5.5599 8.15169 5.55534 8.24219 5.55534 8.33333V41.6667C5.55534 41.7578 5.5599 41.8483 5.56901 41.9388C5.57813 42.0293 5.59115 42.1191 5.60872 42.2083C5.62695 42.2975 5.64844 42.3861 5.67513 42.4733C5.70182 42.5599 5.73242 42.6458 5.76693 42.7298C5.80208 42.8138 5.8405 42.8958 5.88346 42.9759C5.92643 43.0566 5.97331 43.1341 6.02344 43.2096C6.07422 43.2858 6.12826 43.3587 6.1862 43.429C6.24349 43.4994 6.30469 43.5664 6.36914 43.6309C6.43359 43.6953 6.50065 43.7565 6.57096 43.8138C6.64128 43.8717 6.71419 43.9258 6.79036 43.9766C6.86589 44.0267 6.94336 44.0736 7.02409 44.1165C7.10417 44.1595 7.1862 44.1979 7.27018 44.2331C7.35417 44.2676 7.4401 44.2982 7.52669 44.3249C7.61393 44.3509 7.70247 44.373 7.79167 44.3913C7.88086 44.4089 7.9707 44.4219 8.0612 44.431C8.15169 44.4401 8.24219 44.4447 8.33333 44.4447H41.6667C41.7578 44.4447 41.8483 44.4401 41.9388 44.431C42.0293 44.4219 42.1191 44.4089 42.2083 44.3913C42.2975 44.373 42.3861 44.3509 42.4733 44.3249C42.5599 44.2982 42.6458 44.2676 42.7298 44.2331C42.8138 44.1979 42.8958 44.1595 42.9759 44.1165C43.0566 44.0736 43.1341 44.0267 43.2096 43.9766C43.2858 43.9258 43.3587 43.8717 43.429 43.8138C43.4994 43.7565 43.5664 43.6953 43.6309 43.6309C43.6953 43.5664 43.7565 43.4994 43.8138 43.429C43.8717 43.3587 43.9258 43.2858 43.9766 43.2096C44.0267 43.1341 44.0736 43.0566 44.1165 42.9759C44.1595 42.8958 44.1979 42.8138 44.2331 42.7298C44.2676 42.6458 44.2982 42.5599 44.3249 42.4733C44.3509 42.3861 44.373 42.2975 44.3913 42.2083C44.4089 42.1191 44.4219 42.0293 44.431 41.9388C44.4401 41.8483 44.4447 41.7578 44.4447 41.6667V8.33333C44.4447 8.24219 44.4401 8.15169 44.431 8.0612C44.4219 7.9707 44.4089 7.88086 44.3913 7.79167C44.373 7.70247 44.3509 7.61393 44.3249 7.52669C44.2982 7.4401 44.2676 7.35417 44.2331 7.27018C44.1979 7.1862 44.1595 7.10417 44.1165 7.02409C44.0736 6.94336 44.0267 6.86589 43.9766 6.79036C43.9258 6.71419 43.8717 6.64128 43.8138 6.57096C43.7565 6.50065 43.6953 6.43359 43.6309 6.36914C43.5664 6.30469 43.4994 6.24349 43.429 6.1862C43.3587 6.12826 43.2858 6.07422 43.2096 6.02344C43.1341 5.97331 43.0566 5.92643 42.9759 5.88346C42.8958 5.8405 42.8138 5.80208 42.7298 5.76693C42.6458 5.73242 42.5599 5.70182 42.4733 5.67513C42.3861 5.64844 42.2975 5.62695 42.2083 5.60872C42.1191 5.59115 42.0293 5.57813 41.9388 5.56901C41.8483 5.5599 41.7578 5.55534 41.6667 5.55534H8.33333Z" fill="#9482FF"/>
</g>
<path d="M13.9996 39C13.9019 39 13.8035 38.9953 13.7057 38.9866C13.608 38.9772 13.511 38.9638 13.4146 38.9451C13.3183 38.927 13.2234 38.9042 13.1291 38.8775C13.0349 38.85 12.9428 38.8185 12.8521 38.783C12.7607 38.7469 12.6721 38.7067 12.5856 38.6632C12.4991 38.619 12.4147 38.5707 12.3332 38.5185C12.2516 38.467 12.1729 38.4107 12.0969 38.3518C12.021 38.2922 11.9478 38.2292 11.8782 38.1636C11.8093 38.0973 11.7432 38.0277 11.6807 37.9553C11.6188 37.883 11.5597 37.808 11.5056 37.7303C11.4507 37.6526 11.4001 37.5723 11.3537 37.4899C11.308 37.4076 11.2658 37.3232 11.2278 37.2361C11.1906 37.1497 11.1575 37.062 11.1287 36.9723C11.1006 36.8825 11.0766 36.7921 11.0577 36.7004C11.038 36.6087 11.0239 36.5162 11.0141 36.4232C11.0049 36.3301 11 36.2363 11 36.1432V21.8568C11 21.7637 11.0049 21.6699 11.0141 21.5768C11.0239 21.4838 11.038 21.3913 11.0577 21.2996C11.0766 21.2079 11.1006 21.1168 11.1287 21.0277C11.1575 20.938 11.1906 20.8503 11.2278 20.7639C11.2658 20.6768 11.308 20.5924 11.3537 20.5101C11.4001 20.4277 11.4507 20.3474 11.5056 20.2697C11.5597 20.192 11.6188 20.117 11.6807 20.0447C11.7432 19.9723 11.8093 19.9027 11.8782 19.8364C11.9478 19.7708 12.021 19.7078 12.0969 19.6482C12.1729 19.5893 12.2516 19.533 12.3332 19.4815C12.4147 19.4293 12.4991 19.381 12.5856 19.3368C12.6721 19.2933 12.7607 19.2531 12.8521 19.217C12.9428 19.1815 13.0349 19.15 13.1291 19.1225C13.2234 19.0958 13.3183 19.073 13.4146 19.0549C13.511 19.0362 13.608 19.0228 13.7057 19.0134C13.8035 19.0047 13.9019 19 13.9996 19C14.0981 19 14.1958 19.0047 14.2943 19.0134C14.392 19.0228 14.489 19.0362 14.5854 19.0549C14.6817 19.073 14.7766 19.0958 14.8709 19.1225C14.9651 19.15 15.0572 19.1815 15.1479 19.217C15.2386 19.2531 15.3272 19.2933 15.4144 19.3368C15.5009 19.381 15.5853 19.4293 15.6668 19.4815C15.7484 19.533 15.8271 19.5893 15.9031 19.6482C15.979 19.7078 16.0522 19.7708 16.1211 19.8364C16.1907 19.9027 16.2568 19.9723 16.3193 20.0447C16.3812 20.117 16.4396 20.192 16.4944 20.2697C16.5493 20.3474 16.5992 20.4277 16.6456 20.5101C16.692 20.5924 16.7342 20.6768 16.7715 20.7639C16.8094 20.8503 16.8425 20.938 16.8706 21.0277C16.8994 21.1168 16.9234 21.2079 16.9423 21.2996C16.9613 21.3913 16.9761 21.4838 16.9852 21.5768C16.9951 21.6699 17 21.7637 17 21.8568V36.1432C17 36.2363 16.9951 36.3301 16.9852 36.4232C16.9761 36.5162 16.9613 36.6087 16.9423 36.7004C16.9234 36.7921 16.8994 36.8825 16.8706 36.9723C16.8425 37.062 16.8094 37.1497 16.7715 37.2361C16.7342 37.3232 16.692 37.4076 16.6456 37.4899C16.5992 37.5723 16.5493 37.6526 16.4944 37.7303C16.4396 37.808 16.3812 37.883 16.3193 37.9553C16.2568 38.0277 16.1907 38.0973 16.1211 38.1636C16.0522 38.2292 15.979 38.2922 15.9031 38.3518C15.8271 38.4107 15.7484 38.467 15.6668 38.5185C15.5853 38.5707 15.5009 38.619 15.4144 38.6632C15.3272 38.7067 15.2386 38.7469 15.1479 38.783C15.0572 38.8185 14.9651 38.85 14.8709 38.8775C14.7766 38.9042 14.6817 38.927 14.5854 38.9451C14.489 38.9638 14.392 38.9772 14.2943 38.9866C14.1958 38.9953 14.0981 39 13.9996 39Z" fill="#9482FF"/>
<path d="M14.0074 17C13.9092 17 13.8117 16.9958 13.7135 16.986C13.616 16.9769 13.5192 16.9628 13.4231 16.9439C13.3264 16.925 13.2317 16.9011 13.1377 16.8731C13.043 16.845 12.9511 16.812 12.86 16.7749C12.7695 16.7377 12.6804 16.6956 12.5942 16.65C12.5072 16.6037 12.423 16.554 12.341 16.4992C12.2596 16.4452 12.1804 16.387 12.1046 16.3246C12.0282 16.2629 11.9559 16.197 11.8858 16.1282C11.8164 16.0588 11.7504 15.9866 11.688 15.9108C11.6249 15.8351 11.5667 15.7565 11.512 15.6752C11.4573 15.5938 11.4061 15.5097 11.3598 15.4234C11.3128 15.3371 11.2707 15.2488 11.2328 15.1583C11.195 15.0678 11.162 14.9752 11.1326 14.882C11.1038 14.788 11.08 14.6926 11.0603 14.5965C11.0407 14.5004 11.0259 14.4037 11.0161 14.3062C11.0056 14.2087 11.0007 14.1105 11 14.0123C11 13.9141 11.0042 13.8159 11.0133 13.7185C11.0224 13.621 11.0365 13.5235 11.0554 13.4274C11.0743 13.3313 11.0975 13.2359 11.1255 13.142C11.1536 13.048 11.1866 12.9554 11.2237 12.8649C11.2609 12.7738 11.3023 12.6847 11.3479 12.5984C11.3942 12.5115 11.444 12.4273 11.498 12.3452C11.552 12.2632 11.6102 12.1846 11.6719 12.1082C11.7336 12.0317 11.7995 11.9588 11.8683 11.8894C11.9377 11.8192 12.0099 11.7533 12.0857 11.6909C12.1607 11.6278 12.2393 11.5696 12.3206 11.5142C12.402 11.4594 12.4854 11.4083 12.5724 11.362C12.6587 11.315 12.747 11.2729 12.8375 11.2343C12.928 11.1964 13.0199 11.1628 13.1139 11.134C13.2071 11.1053 13.3025 11.0807 13.3986 11.0611C13.4947 11.0415 13.5915 11.0267 13.689 11.0162C13.7864 11.0064 13.8846 11.0008 13.9828 11.0001C14.081 10.9994 14.1792 11.0036 14.2767 11.0127C14.3742 11.0218 14.4717 11.0358 14.5677 11.0541C14.6638 11.073 14.7592 11.0962 14.8532 11.1242C14.9472 11.1516 15.0397 11.1845 15.1309 11.221C15.2221 11.2582 15.3105 11.2995 15.3974 11.3451C15.4844 11.3914 15.5686 11.4412 15.6506 11.4952C15.7327 11.5492 15.8119 11.6067 15.8884 11.6684C15.9641 11.7302 16.0378 11.7954 16.1072 11.8648C16.1773 11.9336 16.2432 12.0058 16.3064 12.0815C16.3688 12.1566 16.4277 12.2351 16.4831 12.3165C16.5378 12.3971 16.589 12.4813 16.636 12.5676C16.683 12.6538 16.7251 12.7422 16.7636 12.8327C16.8015 12.9224 16.8352 13.015 16.8646 13.1083C16.8941 13.2023 16.9179 13.2969 16.9383 13.393C16.9579 13.4891 16.9733 13.5866 16.9832 13.6841C16.9937 13.7816 16.9993 13.8791 17 13.9772V14.0074C17 14.1056 16.9951 14.2031 16.9853 14.3006C16.9762 14.398 16.9614 14.4948 16.9425 14.5909C16.9236 14.687 16.8997 14.7824 16.871 14.8764C16.8429 14.9696 16.8099 15.0622 16.7721 15.1527C16.7349 15.2432 16.6928 15.3315 16.6465 15.4178C16.6002 15.5048 16.5504 15.5882 16.4957 15.6696C16.441 15.7516 16.3828 15.8302 16.3211 15.9059C16.2587 15.9817 16.1928 16.0539 16.1233 16.1233C16.0546 16.1928 15.9816 16.2587 15.9059 16.3204C15.8302 16.3828 15.7516 16.441 15.6703 16.4957C15.5889 16.5497 15.5047 16.6002 15.4185 16.6465C15.3315 16.6928 15.2431 16.7342 15.1527 16.7721C15.0622 16.8092 14.9703 16.8422 14.8763 16.871C14.7823 16.8997 14.6877 16.9229 14.5916 16.9425C14.4955 16.9614 14.3987 16.9755 14.3012 16.9853C14.203 16.9951 14.1056 17 14.0074 17Z" fill="#9482FF"/>
<path d="M25 39C24.9016 39 24.8038 38.9953 24.7061 38.9866C24.6084 38.9772 24.5114 38.9638 24.415 38.9451C24.3187 38.927 24.2231 38.9042 24.1289 38.8775C24.0354 38.85 23.9426 38.8185 23.8519 38.783C23.7612 38.7469 23.6726 38.7067 23.5861 38.6632C23.4989 38.619 23.4153 38.5707 23.3337 38.5185C23.2515 38.467 23.1727 38.4107 23.0968 38.3518C23.0209 38.2922 22.9484 38.2292 22.8788 38.1636C22.8092 38.0973 22.7431 38.0277 22.6813 37.9553C22.6187 37.883 22.5603 37.808 22.5055 37.7303C22.4514 37.6526 22.4008 37.5723 22.3543 37.4899C22.3079 37.4076 22.2665 37.3232 22.2285 37.2361C22.1912 37.1497 22.1582 37.062 22.1294 36.9723C22.1005 36.8825 22.0773 36.7921 22.0577 36.7004C22.0387 36.6087 22.0246 36.5162 22.0148 36.4232C22.0049 36.3301 22 36.2363 22 36.1432V21.8568C22 21.7637 22.0049 21.6699 22.0148 21.5768C22.0246 21.4838 22.0387 21.3913 22.0577 21.2996C22.0773 21.2079 22.1005 21.1168 22.1294 21.0277C22.1582 20.938 22.1912 20.8503 22.2285 20.7639C22.2665 20.6768 22.3079 20.5924 22.3543 20.5101C22.4008 20.4277 22.4514 20.3474 22.5055 20.2697C22.5603 20.192 22.6187 20.117 22.6813 20.0447C22.7431 19.9723 22.8092 19.9027 22.8788 19.8364C22.9484 19.7708 23.0209 19.7078 23.0968 19.6482C23.1727 19.5893 23.2515 19.533 23.3337 19.4815C23.4153 19.4293 23.4989 19.381 23.5861 19.3368C23.6726 19.2933 23.7612 19.2531 23.8519 19.217C23.9426 19.1815 24.0354 19.15 24.1289 19.1225C24.2231 19.0958 24.3187 19.073 24.415 19.0549C24.5114 19.0362 24.6084 19.0228 24.7061 19.0134C24.8038 19.0047 24.9016 19 25 19C25.0984 19 25.1962 19.0047 25.2939 19.0134C25.3916 19.0228 25.4886 19.0362 25.585 19.0549C25.6813 19.073 25.7769 19.0958 25.8711 19.1225C25.9646 19.15 26.0574 19.1815 26.1481 19.217C26.2388 19.2531 26.3274 19.2933 26.4139 19.3368C26.5011 19.381 26.5847 19.4293 26.6663 19.4815C26.7485 19.533 26.8273 19.5893 26.9032 19.6482C26.9791 19.7078 27.0516 19.7708 27.1212 19.8364C27.1908 19.9027 27.2569 19.9723 27.3187 20.0447C27.3813 20.117 27.4397 20.192 27.4945 20.2697C27.5486 20.3474 27.5993 20.4277 27.6457 20.5101C27.6921 20.5924 27.7335 20.6768 27.7715 20.7639C27.8088 20.8503 27.8418 20.938 27.8706 21.0277C27.8995 21.1168 27.9227 21.2079 27.9423 21.2996C27.9613 21.3913 27.9754 21.4838 27.9852 21.5768C27.9951 21.6699 28 21.7637 28 21.8568V36.1432C28 36.2363 27.9951 36.3301 27.9852 36.4232C27.9754 36.5162 27.9613 36.6087 27.9423 36.7004C27.9227 36.7921 27.8988 36.8825 27.8706 36.9723C27.8418 37.062 27.8088 37.1497 27.7715 37.2361C27.7335 37.3232 27.6921 37.4076 27.6457 37.4899C27.5993 37.5723 27.5486 37.6526 27.4945 37.7303C27.4397 37.808 27.3813 37.883 27.3187 37.9553C27.2569 38.0277 27.1908 38.0973 27.1212 38.1636C27.0516 38.2292 26.9791 38.2922 26.9032 38.3518C26.8273 38.4107 26.7485 38.467 26.6663 38.5185C26.5847 38.5707 26.5011 38.619 26.4139 38.6632C26.3274 38.7067 26.2388 38.7469 26.1481 38.783C26.0574 38.8185 25.9646 38.85 25.8711 38.8775C25.7769 38.9042 25.6813 38.927 25.585 38.9451C25.4886 38.9638 25.3916 38.9772 25.2939 38.9866C25.1962 38.9953 25.0984 39 25 39Z" fill="#9482FF"/>
<path d="M36.1671 39C36.0741 39 35.9818 38.9953 35.8889 38.9866C35.7966 38.9772 35.7049 38.9638 35.6139 38.9451C35.523 38.927 35.4333 38.9042 35.3443 38.8775C35.2554 38.85 35.1684 38.8185 35.0827 38.783C34.997 38.7469 34.9134 38.7067 34.831 38.6632C34.7493 38.619 34.6696 38.5707 34.5926 38.5185C34.5156 38.467 34.4412 38.4107 34.3695 38.3518C34.2978 38.2922 34.2287 38.2292 34.1636 38.1636C34.0979 38.0973 34.0355 38.0277 33.9764 37.9553C33.9179 37.883 33.8628 37.808 33.811 37.7303C33.7592 37.6526 33.7121 37.5723 33.6682 37.4899C33.6244 37.4076 33.5846 37.3232 33.5494 37.2361C33.5135 37.1497 33.4823 37.062 33.4557 36.9723C33.4285 36.8825 33.4059 36.7921 33.388 36.7004C33.3701 36.6087 33.3561 36.5162 33.3475 36.4232C33.3382 36.3301 33.3336 36.2363 33.3336 36.1432V27.5716C33.3336 27.4779 33.3289 27.3848 33.3196 27.291C33.311 27.198 33.297 27.1055 33.2791 27.0138C33.2612 26.9221 33.2386 26.8316 33.2114 26.7419C33.1848 26.6522 33.1536 26.5645 33.1177 26.4781C33.0825 26.3917 33.0427 26.3073 32.9989 26.2243C32.955 26.1419 32.9079 26.0615 32.8561 25.9839C32.8043 25.9062 32.7492 25.8312 32.6907 25.7589C32.6316 25.6865 32.5692 25.6169 32.5035 25.5513C32.4384 25.485 32.3693 25.422 32.2976 25.3624C32.2259 25.3035 32.1515 25.2479 32.0745 25.1957C31.9975 25.1434 31.9178 25.0959 31.8361 25.0517C31.7538 25.0075 31.6701 24.9673 31.5844 24.9318C31.4987 24.8957 31.4118 24.8642 31.3228 24.8374C31.2338 24.81 31.1441 24.7872 31.0532 24.7691C30.9622 24.751 30.8705 24.737 30.7782 24.7283C30.6853 24.7189 30.593 24.7142 30.5 24.7142C30.4077 24.7142 30.3147 24.7189 30.2224 24.7283C30.1301 24.737 30.0385 24.751 29.9475 24.7691C29.8565 24.7872 29.7662 24.81 29.6779 24.8374C29.5889 24.8642 29.5019 24.8957 29.4163 24.9318C29.3299 24.9673 29.2463 25.0075 29.1646 25.0517C29.0829 25.0959 29.0032 25.1434 28.9262 25.1957C28.8491 25.2479 28.7748 25.3035 28.703 25.3624C28.6313 25.422 28.5623 25.485 28.4965 25.5513C28.4314 25.6169 28.369 25.6865 28.3099 25.7589C28.2508 25.8312 28.1957 25.9062 28.1446 25.9839C28.0928 26.0615 28.045 26.1419 28.0011 26.2243C27.958 26.3073 27.9181 26.3917 27.8823 26.4781C27.8471 26.5645 27.8159 26.6522 27.7886 26.7419C27.7621 26.8316 27.7395 26.9221 27.7216 27.0138C27.703 27.1055 27.6897 27.198 27.6804 27.291C27.6718 27.3848 27.6671 27.4779 27.6671 27.5716C27.6671 27.6647 27.6625 27.7585 27.6532 27.8515C27.6439 27.9446 27.6306 28.037 27.6127 28.1288C27.5941 28.2205 27.5715 28.3109 27.5449 28.4007C27.5177 28.4904 27.4865 28.5781 27.4513 28.6645C27.4154 28.7516 27.3762 28.8359 27.3324 28.9183C27.2886 29.0007 27.2408 29.081 27.1896 29.1587C27.1379 29.2364 27.0827 29.3114 27.0236 29.3837C26.9652 29.456 26.9028 29.5257 26.837 29.592C26.7713 29.6576 26.7029 29.7206 26.6312 29.7802C26.5595 29.8391 26.4851 29.8953 26.4074 29.9469C26.3304 29.9991 26.2513 30.0473 26.169 30.0915C26.0873 30.1351 26.0036 30.1752 25.918 30.2114C25.8323 30.2469 25.7446 30.2784 25.6563 30.3058C25.5673 30.3326 25.477 30.3554 25.3861 30.3735C25.2951 30.3922 25.2034 30.4056 25.1111 30.415C25.0188 30.4237 24.9265 30.4284 24.8336 30.4284C24.7406 30.4284 24.6483 30.4237 24.556 30.415C24.4637 30.4056 24.372 30.3922 24.2811 30.3735C24.1901 30.3554 24.0998 30.3326 24.0108 30.3058C23.9225 30.2784 23.8348 30.2469 23.7491 30.2114C23.6635 30.1752 23.5798 30.1351 23.4981 30.0915C23.4158 30.0473 23.3368 29.9991 23.2597 29.9469C23.182 29.8953 23.1077 29.8391 23.0359 29.7802C22.9642 29.7206 22.8958 29.6576 22.8301 29.592C22.7643 29.5257 22.7019 29.456 22.6435 29.3837C22.5844 29.3114 22.5293 29.2364 22.4775 29.1587C22.4263 29.081 22.3785 29.0007 22.3347 28.9183C22.2909 28.8359 22.2517 28.7516 22.2158 28.6645C22.1806 28.5781 22.1494 28.4904 22.1222 28.4007C22.095 28.3109 22.073 28.2205 22.0545 28.1288C22.0365 28.037 22.0232 27.9446 22.0139 27.8515C22.0046 27.7585 22 27.6647 22 27.5716C22 27.2904 22.0139 27.0104 22.0412 26.7312C22.0684 26.452 22.1089 26.1747 22.1634 25.8988C22.2178 25.6236 22.2855 25.3517 22.3659 25.0832C22.4469 24.8146 22.5405 24.5508 22.6475 24.291C22.7537 24.0318 22.8726 23.778 23.0041 23.5309C23.1349 23.2831 23.2783 23.0427 23.433 22.809C23.5871 22.576 23.7531 22.3503 23.9298 22.1333C24.1064 21.9164 24.293 21.7088 24.4896 21.5105C24.6868 21.3117 24.8927 21.1235 25.1078 20.9454C25.323 20.7672 25.5461 20.6005 25.7779 20.4445C26.0096 20.2884 26.248 20.1444 26.493 20.0119C26.7387 19.8793 26.9904 19.7594 27.2474 19.6522C27.5044 19.5451 27.7667 19.4507 28.033 19.369C28.2993 19.2873 28.5689 19.219 28.8418 19.1647C29.1148 19.1098 29.3904 19.0683 29.6673 19.0408C29.9442 19.0134 30.2218 19 30.5 19C30.7789 19 31.0565 19.0134 31.3334 19.0408C31.6103 19.0683 31.8852 19.1098 32.1582 19.1647C32.4318 19.219 32.7014 19.2873 32.9677 19.369C33.2339 19.4507 33.4956 19.5451 33.7532 19.6522C34.0102 19.7594 34.2613 19.8793 34.507 20.0119C34.7527 20.1444 34.9911 20.2884 35.2228 20.4445C35.4539 20.6005 35.677 20.7672 35.8929 20.9454C36.108 21.1235 36.3139 21.3117 36.5104 21.5105C36.7077 21.7088 36.8943 21.9164 37.0709 22.1333C37.2475 22.3503 37.4129 22.576 37.5676 22.809C37.7223 23.0427 37.8651 23.2831 37.9966 23.5309C38.1281 23.778 38.247 24.0318 38.3532 24.291C38.4595 24.5508 38.5531 24.8146 38.6341 25.0832C38.7151 25.3517 38.7829 25.6236 38.8366 25.8988C38.8911 26.1747 38.9323 26.452 38.9595 26.7312C38.9867 27.0104 39 27.2904 39 27.5716V36.1432C39 36.2363 38.9954 36.3301 38.9867 36.4232C38.9774 36.5162 38.9641 36.6087 38.9455 36.7004C38.9276 36.7921 38.905 36.8825 38.8785 36.9723C38.8513 37.062 38.82 37.1497 38.7848 37.2361C38.749 37.3232 38.7091 37.4076 38.666 37.4899C38.6221 37.5723 38.5743 37.6526 38.5225 37.7303C38.4714 37.808 38.4156 37.883 38.3572 37.9553C38.2981 38.0277 38.2357 38.0973 38.1706 38.1636C38.1048 38.2292 38.0358 38.2922 37.9641 38.3518C37.8923 38.4107 37.818 38.467 37.7409 38.5185C37.6639 38.5707 37.5842 38.619 37.5025 38.6632C37.4209 38.7067 37.3372 38.7469 37.2509 38.783C37.1652 38.8185 37.0782 38.85 36.9892 38.8775C36.9002 38.9042 36.8106 38.927 36.7196 38.9451C36.6286 38.9638 36.537 38.9772 36.4447 38.9866C36.3524 38.9953 36.2594 39 36.1671 39Z" fill="#9482FF"/>
</g>
<defs>
<clipPath id="clip0_106_421">
<rect width="50" height="50" fill="white"/>
</clipPath>
</defs>
</svg>
