<svg width="33" height="33" viewBox="0 0 33 33" fill="none" xmlns="http://www.w3.org/2000/svg">
<mask id="mask0_105_397" style="mask-type:luminance" maskUnits="userSpaceOnUse" x="0" y="0" width="33" height="33">
<path d="M0 0H33V33H0V0Z" fill="white"/>
</mask>
<g mask="url(#mask0_105_397)">
<path fill-rule="evenodd" clip-rule="evenodd" d="M20.842 3.47353C19.8828 3.47353 19.105 2.69616 19.105 1.73656C19.105 0.777372 19.8828 0 20.842 0H31.263C32.2222 0 33 0.777372 33 1.73656V12.158C33 13.1172 32.2222 13.8945 31.263 13.8945C30.3038 13.8945 29.5261 13.1172 29.5261 12.158V5.92989L16.8595 18.5965C16.1815 19.2748 15.0815 19.2748 14.4035 18.5965C13.7252 17.9181 13.7252 16.8185 14.4035 16.1401L27.0701 3.47353H20.842ZM5.2105 6.94706C4.25132 6.94706 3.47353 7.72485 3.47353 8.68404V27.7895C3.47353 28.7487 4.25132 29.5261 5.2105 29.5261H24.3155C25.2752 29.5261 26.0525 28.7487 26.0525 27.7895V19.865C26.0525 18.9058 26.8303 18.1281 27.7895 18.1281C28.7487 18.1281 29.5261 18.9058 29.5261 19.865V27.7895C29.5261 30.6671 27.1935 33 24.3155 33H5.2105C2.33294 33 0 30.6671 0 27.7895V8.68404C0 5.80648 2.33294 3.47353 5.2105 3.47353H13.1346C14.0942 3.47353 14.8715 4.25132 14.8715 5.2105C14.8715 6.16969 14.0942 6.94706 13.1346 6.94706H5.2105Z" fill="#9482FF"/>
</g>
</svg>
