<svg width="60" height="60" viewBox="0 0 60 60" fill="none" xmlns="http://www.w3.org/2000/svg">
<g clip-path="url(#clip0_114_238)">
<path d="M48.6524 3.6H11.3476C7.0687 3.6 3.59998 7.06873 3.59998 11.3476V48.6524C3.59998 52.9313 7.0687 56.4 11.3476 56.4H48.6524C52.9313 56.4 56.4 52.9313 56.4 48.6524V11.3476C56.4 7.06873 52.9313 3.6 48.6524 3.6Z" stroke="#9482FF" stroke-width="6" stroke-miterlimit="10"/>
<path d="M15.8929 21.9167C15.0342 21.9167 14.2917 21.6519 13.6848 21.1225C13.0714 20.5931 12.768 19.8442 12.768 18.8757C12.768 17.9977 13.0844 17.2745 13.7106 16.7128C14.3369 16.1447 15.0665 15.8606 15.8993 15.8606C16.7322 15.8606 17.4101 16.1189 18.0299 16.6289C18.6497 17.1454 18.9596 17.8944 18.9596 18.8757C18.9596 19.8571 18.6562 20.5737 18.0493 21.1096C17.4424 21.6455 16.7257 21.9167 15.8929 21.9167ZM18.9532 28.3149V46.2054C18.9532 47.445 18.6562 48.3812 18.0687 49.0204C17.4811 49.6596 16.7322 49.9759 15.8218 49.9759C14.9115 49.9759 14.1755 49.6531 13.6138 49.001C13.0521 48.3489 12.7615 47.4192 12.7615 46.2119V28.5021C12.7615 27.2754 13.0456 26.3586 13.6138 25.7324C14.1819 25.1125 14.918 24.8026 15.8218 24.8026C16.7257 24.8026 17.4747 25.1125 18.0687 25.7324C18.6562 26.3522 18.9532 27.2173 18.9532 28.3149Z" fill="#9482FF"/>
<path d="M30.9749 27.5724V27.6757C33.0732 26.3586 33.3315 26.378 34.5453 25.8034C35.8624 25.1836 37.3215 24.7962 39.0002 24.7962C40.6788 24.7962 42.0928 25.1513 43.3776 25.8615C44.6624 26.5717 45.6244 27.5789 46.2571 28.8766C46.6638 29.632 46.9286 30.4519 47.0512 31.3236C47.1739 32.2016 47.232 33.3186 47.232 34.6809V46.199C47.232 47.4386 46.9479 48.3748 46.3798 49.0139C45.8116 49.6531 45.0756 49.9695 44.1717 49.9695C43.2678 49.9695 42.4995 49.6467 41.9249 48.9946C41.3503 48.3425 41.0662 47.4128 41.0662 46.2054V35.8882C41.0662 33.848 40.7821 32.2855 40.214 31.2073C39.6458 30.1291 38.5159 29.5868 36.8244 29.5868C35.7203 29.5868 34.7131 29.9161 33.8093 30.5746C32.9054 31.2332 32.2339 32.1371 31.8142 33.2863C31.5108 34.2095 31.3623 35.9334 31.3623 38.4578V46.2119C31.3623 47.4644 31.0718 48.407 30.4907 49.0333C29.9096 49.6596 29.1542 49.9759 28.2374 49.9759C27.3206 49.9759 26.6104 49.6531 26.0358 49.001C25.4612 48.3489 25.1771 47.4192 25.1771 46.2119V28.3214C25.1771 27.1398 25.4354 26.2618 25.9454 25.6807C26.4619 25.0996 27.1592 24.8091 28.0567 24.8091C28.599 24.8091 29.0897 24.9382 29.5287 25.1965C29.9677 25.4547 30.3164 25.8421 30.5811 26.3522C30.7576 26.6965 30.8888 27.1097 30.9749 27.5918V27.5724Z" fill="#9482FF"/>
</g>
<defs>
<clipPath id="clip0_114_238">
<rect width="60" height="60" fill="white"/>
</clipPath>
</defs>
</svg>
