<svg xmlns="http://www.w3.org/2000/svg" xmlns:xlink="http://www.w3.org/1999/xlink" width="500" zoomAndPan="magnify" viewBox="0 0 375 374.999991" height="500" preserveAspectRatio="xMidYMid meet" version="1.0"><defs><clipPath id="2c0a2b2188"><path d="M 32.023438 32.023438 L 343.273438 32.023438 L 343.273438 343.273438 L 32.023438 343.273438 Z M 32.023438 32.023438 " clip-rule="nonzero"/></clipPath></defs><rect x="-37.5" width="450" fill="#ffffff" y="-37.499999" height="449.999989" fill-opacity="1"/><rect x="-37.5" width="450" fill="#ffffff" y="-37.499999" height="449.999989" fill-opacity="1"/><rect x="-37.5" width="450" fill="#ffffff" y="-37.499999" height="449.999989" fill-opacity="1"/><g clip-path="url(#2c0a2b2188)"><path fill="#000000" d="M 228.601562 64.785156 C 219.554688 64.785156 212.21875 57.453125 212.21875 48.402344 C 212.21875 39.355469 219.554688 32.023438 228.601562 32.023438 L 326.890625 32.023438 C 335.9375 32.023438 343.273438 39.355469 343.273438 48.402344 L 343.273438 146.695312 C 343.273438 155.742188 335.9375 163.074219 326.890625 163.074219 C 317.84375 163.074219 310.507812 155.742188 310.507812 146.695312 L 310.507812 87.953125 L 191.039062 207.421875 C 184.644531 213.820312 174.269531 213.820312 167.875 207.421875 C 161.476562 201.023438 161.476562 190.652344 167.875 184.253906 L 287.34375 64.785156 Z M 81.167969 97.546875 C 72.121094 97.546875 64.785156 104.882812 64.785156 113.929688 L 64.785156 294.128906 C 64.785156 303.175781 72.121094 310.507812 81.167969 310.507812 L 261.363281 310.507812 C 270.414062 310.507812 277.746094 303.175781 277.746094 294.128906 L 277.746094 219.386719 C 277.746094 210.339844 285.082031 203.003906 294.128906 203.003906 C 303.175781 203.003906 310.507812 210.339844 310.507812 219.386719 L 310.507812 294.128906 C 310.507812 321.269531 288.507812 343.273438 261.363281 343.273438 L 81.167969 343.273438 C 54.027344 343.273438 32.023438 321.269531 32.023438 294.128906 L 32.023438 113.929688 C 32.023438 86.789062 54.027344 64.785156 81.167969 64.785156 L 155.90625 64.785156 C 164.957031 64.785156 172.289062 72.121094 172.289062 81.167969 C 172.289062 90.214844 164.957031 97.546875 155.90625 97.546875 Z M 81.167969 97.546875 " fill-opacity="1" fill-rule="evenodd"/></g></svg>