<svg width="70" height="70" viewBox="0 0 70 70" fill="none" xmlns="http://www.w3.org/2000/svg">
<path d="M53.9296 7H15.0704C10.6133 7 7 10.6133 7 15.0704V53.9296C7 58.3867 10.6133 62 15.0704 62H53.9296C58.3867 62 62 58.3867 62 53.9296V15.0704C62 10.6133 58.3867 7 53.9296 7Z" stroke="#9482FF" stroke-width="6" stroke-miterlimit="10"/>
<path d="M19.8051 26.0798C18.9106 26.0798 18.1372 25.8041 17.505 25.2526C16.8661 24.7011 16.55 23.921 16.55 22.9122C16.55 21.9976 16.8795 21.2443 17.5319 20.6592C18.1843 20.0674 18.9442 19.7715 19.8118 19.7715C20.6794 19.7715 21.3855 20.0405 22.0312 20.5718C22.6768 21.1098 22.9996 21.8899 22.9996 22.9122C22.9996 23.9345 22.6835 24.681 22.0513 25.2392C21.4192 25.7974 20.6726 26.0798 19.8051 26.0798ZM22.9929 32.7447V51.3807C22.9929 52.6719 22.6835 53.6471 22.0715 54.3129C21.4595 54.9787 20.6794 55.3083 19.7311 55.3083C18.7828 55.3083 18.0161 54.972 17.431 54.2927C16.8459 53.6135 16.5433 52.645 16.5433 51.3874V32.9397C16.5433 31.6619 16.8392 30.7069 17.431 30.0545C18.0229 29.4089 18.7895 29.0861 19.7311 29.0861C20.6726 29.0861 21.4528 29.4089 22.0715 30.0545C22.6835 30.7002 22.9929 31.6014 22.9929 32.7447Z" fill="#9482FF"/>
<path d="M35.5156 31.9713V32.0789C37.7013 30.7069 37.9703 30.7271 39.2347 30.1285C40.6067 29.4829 42.1266 29.0794 43.8752 29.0794C45.6238 29.0794 47.0966 29.4493 48.435 30.189C49.7733 30.9288 50.7754 31.978 51.4345 33.3298C51.8582 34.1167 52.1339 34.9708 52.2617 35.8787C52.3895 36.7933 52.45 37.9568 52.45 39.3759V51.3739C52.45 52.6652 52.1541 53.6404 51.5623 54.3062C50.9705 54.972 50.2038 55.3015 49.2622 55.3015C48.3207 55.3015 47.5203 54.9653 46.9218 54.286C46.3232 53.6068 46.0273 52.6383 46.0273 51.3807V40.6335C46.0273 38.5083 45.7314 36.8808 45.1396 35.7576C44.5477 34.6345 43.3708 34.0696 41.6087 34.0696C40.4587 34.0696 39.4096 34.4126 38.468 35.0986C37.5265 35.7845 36.827 36.7261 36.3899 37.9232C36.0738 38.8849 35.9191 40.6806 35.9191 43.3102V51.3874C35.9191 52.6921 35.6165 53.674 35.0112 54.3264C34.4059 54.9787 33.619 55.3083 32.664 55.3083C31.709 55.3083 30.9692 54.972 30.3707 54.2927C29.7721 53.6135 29.4762 52.645 29.4762 51.3874V32.7514C29.4762 31.5207 29.7452 30.606 30.2765 30.0007C30.8145 29.3955 31.5409 29.0928 32.4757 29.0928C33.0406 29.0928 33.5518 29.2273 34.0091 29.4963C34.4664 29.7653 34.8296 30.1689 35.1053 30.7002C35.2892 31.0589 35.4259 31.4893 35.5156 31.9914V31.9713Z" fill="#9482FF"/>
</svg>
