<svg width="184" height="46" viewBox="0 0 184 46" fill="none" xmlns="http://www.w3.org/2000/svg">
<path d="M11.472 29.56H18.64V33.784H6V11.32H11.472V29.56Z" fill="#9482FF"/>
<path d="M26.722 15.704V20.248H34.05V24.472H26.722V29.4H35.01V33.784H21.25V11.32H35.01V15.704H26.722Z" fill="#9482FF"/>
<path d="M50.0185 33.784L45.3465 25.304H44.0345V33.784H38.5625V11.32H47.7465C49.5172 11.32 51.0212 11.6293 52.2585 12.248C53.5172 12.8667 54.4558 13.72 55.0745 14.808C55.6932 15.8747 56.0025 17.0693 56.0025 18.392C56.0025 19.8853 55.5758 21.2187 54.7225 22.392C53.8905 23.5653 52.6532 24.3973 51.0105 24.888L56.1945 33.784H50.0185ZM44.0345 21.432H47.4265C48.4292 21.432 49.1758 21.1867 49.6665 20.696C50.1785 20.2053 50.4345 19.512 50.4345 18.616C50.4345 17.7627 50.1785 17.0907 49.6665 16.6C49.1758 16.1093 48.4292 15.864 47.4265 15.864H44.0345V21.432Z" fill="#9482FF"/>
<path d="M124.416 11.32C126.784 11.32 128.853 11.7893 130.624 12.728C132.395 13.6667 133.76 14.9893 134.72 16.696C135.701 18.3813 136.192 20.3333 136.192 22.552C136.192 24.7493 135.701 26.7013 134.72 28.408C133.76 30.1147 132.384 31.4373 130.592 32.376C128.821 33.3147 126.763 33.784 124.416 33.784H116V11.32H124.416ZM124.064 29.048C126.133 29.048 127.744 28.4827 128.896 27.352C130.048 26.2213 130.624 24.6213 130.624 22.552C130.624 20.4827 130.048 18.872 128.896 17.72C127.744 16.568 126.133 15.992 124.064 15.992H121.472V29.048H124.064Z" fill="#9482FF"/>
<path d="M144.722 15.704V20.248H152.05V24.472H144.722V29.4H153.01V33.784H139.25V11.32H153.01V15.704H144.722Z" fill="#9482FF"/>
<path d="M177.65 11.32L169.682 33.784H162.835L154.867 11.32H160.691L166.258 28.28L171.859 11.32H177.65Z" fill="#9482FF"/>
<path d="M100.264 11.32L92.488 26.36V33.784H87.016V26.36L79.24 11.32H85.448L89.8 20.728L94.12 11.32H100.264Z" fill="#9482FF"/>
<path d="M69.624 34.008C67.512 34.008 65.5707 33.5173 63.8 32.536C62.0507 31.5547 60.6533 30.1893 59.608 28.44C58.584 26.6693 58.072 24.6853 58.072 22.488C58.072 20.2907 58.584 18.3173 59.608 16.568C60.6533 14.8187 62.0507 13.4533 63.8 12.472C65.5707 11.4907 67.512 11 69.624 11C71.736 11 73.6667 11.4907 75.416 12.472C77.1867 13.4533 78.5733 14.8187 79.576 16.568C80.6 18.3173 81.112 20.2907 81.112 22.488C81.112 24.6853 80.6 26.6693 79.576 28.44C78.552 30.1893 77.1653 31.5547 75.416 32.536C73.6667 33.5173 71.736 34.008 69.624 34.008ZM69.624 29.016C71.416 29.016 72.8453 28.4187 73.912 27.224C75 26.0293 75.544 24.4507 75.544 22.488C75.544 20.504 75 18.9253 73.912 17.752C72.8453 16.5573 71.416 15.96 69.624 15.96C67.8107 15.96 66.36 16.5467 65.272 17.72C64.2053 18.8933 63.672 20.4827 63.672 22.488C63.672 24.472 64.2053 26.0613 65.272 27.256C66.36 28.4293 67.8107 29.016 69.624 29.016Z" fill="#9482FF"/>
<path d="M101.016 22.784H109.016V33.784H101.016V22.784Z" fill="#9482FF"/>
</svg>
