<svg xmlns="http://www.w3.org/2000/svg" xmlns:xlink="http://www.w3.org/1999/xlink" width="500" zoomAndPan="magnify" viewBox="0 0 375 374.999991" height="500" preserveAspectRatio="xMidYMid meet" version="1.0"><defs><clipPath id="54de74b021"><path d="M 112.3125 37.5 L 263.0625 37.5 L 263.0625 337.5 L 112.3125 337.5 Z M 112.3125 37.5 " clip-rule="nonzero"/></clipPath></defs><path fill="#7768cc" d="M 187.6875 300.734375 C 181.882812 300.734375 177.164062 305.441406 177.164062 311.234375 C 177.164062 317.019531 181.882812 321.726562 187.6875 321.726562 C 193.488281 321.726562 198.210938 317.019531 198.210938 311.234375 C 198.210938 305.441406 193.488281 300.734375 187.6875 300.734375 " fill-opacity="1" fill-rule="nonzero"/><g clip-path="url(#54de74b021)"><path fill="#7768cc" d="M 254.15625 282.390625 C 254.15625 283.78125 253.011719 284.929688 251.609375 284.929688 L 123.761719 284.929688 C 122.367188 284.929688 121.21875 283.78125 121.21875 282.390625 L 121.21875 92.683594 C 121.21875 91.285156 122.367188 90.144531 123.761719 90.144531 L 251.609375 90.144531 C 253.011719 90.144531 254.15625 91.285156 254.15625 92.683594 Z M 187.6875 327.371094 C 178.769531 327.371094 171.507812 320.128906 171.507812 311.230469 C 171.507812 302.332031 178.769531 295.09375 187.6875 295.09375 C 196.609375 295.09375 203.867188 302.332031 203.867188 311.230469 C 203.867188 320.128906 196.609375 327.371094 187.6875 327.371094 M 169.878906 58.6875 C 169.878906 57.289062 171.023438 56.148438 172.421875 56.148438 L 202.953125 56.148438 C 204.351562 56.148438 205.496094 57.289062 205.496094 58.6875 L 205.496094 62.070312 C 205.496094 63.464844 204.351562 64.605469 202.953125 64.605469 L 172.421875 64.605469 C 171.023438 64.605469 169.878906 63.464844 169.878906 62.070312 Z M 240.164062 37.800781 L 135.210938 37.800781 C 122.621094 37.800781 112.316406 48.082031 112.316406 60.644531 L 112.316406 314.425781 C 112.316406 326.992188 122.621094 337.269531 135.210938 337.269531 L 240.164062 337.269531 C 252.757812 337.269531 263.058594 326.992188 263.058594 314.425781 L 263.058594 60.644531 C 263.058594 48.082031 252.757812 37.800781 240.164062 37.800781 " fill-opacity="1" fill-rule="nonzero"/></g></svg>